<svg width="715" height="707" viewBox="0 0 715 707" fill="none" xmlns="http://www.w3.org/2000/svg">
<mask id="mask0_1_574" style="mask-type:luminance" maskUnits="userSpaceOnUse" x="355" y="88" width="20" height="200">
<path d="M355 88H375V288H355V88Z" fill="white"/>
</mask>
<g mask="url(#mask0_1_574)">
<path d="M355 288V88.0305H375V288H355Z" fill="#2A323C"/>
</g>
<mask id="mask1_1_574" style="mask-type:luminance" maskUnits="userSpaceOnUse" x="355" y="418" width="20" height="200">
<path d="M355 418H375V618H355V418Z" fill="white"/>
</mask>
<g mask="url(#mask1_1_574)">
<path d="M355 618V418.03H375V618H355Z" fill="#2A323C"/>
</g>
<mask id="mask2_1_574" style="mask-type:luminance" maskUnits="userSpaceOnUse" x="53" y="418" width="20" height="200">
<path d="M53 418H73V618H53V418Z" fill="white"/>
</mask>
<g mask="url(#mask2_1_574)">
<path d="M53 618V418.03H73V618H53Z" fill="#2A323C"/>
</g>
<mask id="mask3_1_574" style="mask-type:luminance" maskUnits="userSpaceOnUse" x="643" y="118" width="20" height="200">
<path d="M643 118H663V318H643V118Z" fill="white"/>
</mask>
<g mask="url(#mask3_1_574)">
<path d="M643 318V118.03H663V318H643Z" fill="#2A323C"/>
</g>
<mask id="mask4_1_574" style="mask-type:luminance" maskUnits="userSpaceOnUse" x="391" y="78" width="200" height="20">
<path d="M391 98V78L591 78V98L391 98Z" fill="white"/>
</mask>
<g mask="url(#mask4_1_574)">
<path d="M591 98L391.03 98V78L591 78V98Z" fill="#2A323C"/>
</g>
<mask id="mask5_1_574" style="mask-type:luminance" maskUnits="userSpaceOnUse" x="433" y="343" width="200" height="20">
<path d="M433 363V343H633V363H433Z" fill="white"/>
</mask>
<g mask="url(#mask5_1_574)">
<path d="M633 363H433.03V343H633V363Z" fill="#2A323C"/>
</g>
<mask id="mask6_1_574" style="mask-type:luminance" maskUnits="userSpaceOnUse" x="98" y="343" width="200" height="20">
<path d="M98 363V343H298V363H98Z" fill="white"/>
</mask>
<g mask="url(#mask6_1_574)">
<path d="M298 363H98.0305V343H298V363Z" fill="#2A323C"/>
</g>
<mask id="mask7_1_574" style="mask-type:luminance" maskUnits="userSpaceOnUse" x="109" y="606" width="200" height="20">
<path d="M109 626V606H309V626H109Z" fill="white"/>
</mask>
<g mask="url(#mask7_1_574)">
<path d="M309 626H109.03V606H309V626Z" fill="#2A323C"/>
</g>
<rect x="590" y="26" width="125" height="125" rx="15" fill="#FF5761"/>
<mask id="mask8_1_574" style="mask-type:luminance" maskUnits="userSpaceOnUse" x="626" y="69" width="55" height="38">
<path d="M626 69H680.667V106.333H626V69Z" fill="white"/>
</mask>
<g mask="url(#mask8_1_574)">
<mask id="mask9_1_574" style="mask-type:luminance" maskUnits="userSpaceOnUse" x="598" y="30" width="117" height="117">
<path d="M634.74 30.4167L714.703 66.9063L678.214 146.875L598.25 110.385L634.74 30.4167Z" fill="white"/>
</mask>
<g mask="url(#mask9_1_574)">
<mask id="mask10_1_574" style="mask-type:luminance" maskUnits="userSpaceOnUse" x="566" y="9" width="169" height="169">
<path d="M619.12 9.58856L734.521 62.25L681.859 177.656L566.458 124.995L619.12 9.58856Z" fill="white"/>
</mask>
<g mask="url(#mask10_1_574)">
<path d="M646.938 85.125C644.438 90.6042 637.979 92.9948 632.521 90.5052C627.063 88.0157 624.646 81.5469 627.141 76.0886C629.63 70.6302 636.099 68.2188 641.557 70.7084C647.01 73.1979 649.438 79.6407 646.938 85.125ZM673.766 84.7292C668.286 82.2292 661.839 84.6563 659.349 90.1146C656.859 95.5729 659.276 102.042 664.734 104.531C670.188 107.021 676.656 104.604 679.151 99.1459C681.641 93.6927 679.25 87.2344 673.766 84.7292Z" fill="white"/>
</g>
</g>
</g>
<mask id="mask11_1_574" style="mask-type:luminance" maskUnits="userSpaceOnUse" x="630" y="73" width="47" height="30">
<path d="M630 73H676.667V102.333H630V73Z" fill="white"/>
</mask>
<g mask="url(#mask11_1_574)">
<mask id="mask12_1_574" style="mask-type:luminance" maskUnits="userSpaceOnUse" x="598" y="30" width="117" height="117">
<path d="M634.74 30.4167L714.703 66.9063L678.214 146.875L598.25 110.385L634.74 30.4167Z" fill="white"/>
</mask>
<g mask="url(#mask12_1_574)">
<mask id="mask13_1_574" style="mask-type:luminance" maskUnits="userSpaceOnUse" x="566" y="9" width="169" height="169">
<path d="M619.12 9.58856L734.521 62.25L681.859 177.656L566.458 124.995L619.12 9.58856Z" fill="white"/>
</mask>
<g mask="url(#mask13_1_574)">
<path d="M643.078 83.3646C641.563 86.6875 637.604 88.1667 634.281 86.6459C630.958 85.1302 629.479 81.1771 630.995 77.849C632.516 74.5261 636.469 73.0469 639.797 74.5677C643.12 76.0834 644.609 80.0104 643.078 83.3646ZM672.005 88.5886C668.682 87.073 664.724 88.5469 663.208 91.875C661.693 95.198 663.167 99.1563 666.495 100.672C669.818 102.188 673.776 100.714 675.292 97.3855C676.807 94.0625 675.333 90.1042 672.005 88.5886Z" fill="#2E2E2E"/>
</g>
</g>
</g>
<mask id="mask14_1_574" style="mask-type:luminance" maskUnits="userSpaceOnUse" x="636" y="87" width="28" height="18">
<path d="M636.667 87.6667H663.333V105H636.667V87.6667Z" fill="white"/>
</mask>
<g mask="url(#mask14_1_574)">
<mask id="mask15_1_574" style="mask-type:luminance" maskUnits="userSpaceOnUse" x="598" y="30" width="117" height="117">
<path d="M634.74 30.4167L714.703 66.9063L678.214 146.875L598.25 110.385L634.74 30.4167Z" fill="white"/>
</mask>
<g mask="url(#mask15_1_574)">
<mask id="mask16_1_574" style="mask-type:luminance" maskUnits="userSpaceOnUse" x="566" y="9" width="169" height="169">
<path d="M619.12 9.58856L734.521 62.25L681.859 177.656L566.458 124.995L619.12 9.58856Z" fill="white"/>
</mask>
<g mask="url(#mask16_1_574)">
<path d="M646.464 103.094C646.234 102.99 646.01 102.885 645.792 102.755C639.495 99.4844 637.635 92.4688 637.552 92.1875C637.188 90.7656 638.047 89.2865 639.469 88.9219C640.891 88.5573 642.37 89.4167 642.734 90.8438C642.776 90.9531 644.135 95.8959 648.281 98.0365C651.016 99.4375 654.448 99.375 658.552 97.8438C659.958 97.3229 661.479 98.0156 662.005 99.4219C662.526 100.823 661.833 102.349 660.427 102.87C655.167 104.859 650.474 104.922 646.464 103.094Z" fill="#2E2E2E"/>
</g>
</g>
</g>
<rect y="555" width="125" height="125" rx="15" fill="#A5ADBB"/>
<rect x="277" y="88.3883" width="125" height="125" rx="15" transform="rotate(-45 277 88.3883)" fill="#A5ADBB"/>
<rect x="277" y="88.3883" width="125" height="125" rx="15" transform="rotate(-45 277 88.3883)" fill="#A5ADBB"/>
<rect x="278" y="618.388" width="125" height="125" rx="15" transform="rotate(-45 278 618.388)" fill="#00B29F"/>
<path d="M365.026 612.016C365.026 617.547 360.547 622.026 355.01 622.026C349.479 622.026 345 617.547 345 612.016C345 606.479 349.479 602 355.01 602C360.547 602 365.026 606.479 365.026 612.016ZM376.932 602C371.401 602 366.917 606.479 366.917 612.016C366.917 617.547 371.401 622.026 376.932 622.026C382.464 622.026 386.948 617.547 386.948 612.016C386.948 606.479 382.464 602 376.932 602Z" fill="white"/>
<path d="M365.797 634.911C360.917 634.911 356.974 630.943 356.974 626.089C356.974 621.208 360.943 617.266 365.797 617.266C370.677 617.266 374.62 621.234 374.62 626.089C374.62 630.943 370.677 634.911 365.797 634.911ZM365.797 622.073C363.578 622.073 361.781 623.87 361.781 626.089C361.781 628.307 363.578 630.104 365.797 630.104C368.016 630.104 369.813 628.307 369.813 626.089C369.813 623.87 368.016 622.073 365.797 622.073Z" fill="#2E2E2E"/>
<path d="M361.104 612.016C361.104 615.396 358.375 618.13 354.99 618.13C351.604 618.13 348.875 615.396 348.875 612.016C348.875 608.63 351.604 605.896 354.99 605.896C358.375 605.896 361.104 608.63 361.104 612.016ZM376.932 605.896C373.547 605.896 370.818 608.63 370.818 612.016C370.818 615.396 373.547 618.13 376.932 618.13C380.318 618.13 383.047 615.396 383.047 612.016C383.047 608.63 380.318 605.896 376.932 605.896Z" fill="#2E2E2E"/>
<rect x="590" y="291" width="125" height="125" rx="62.5" fill="#A5ADBB"/>
<rect x="255" y="287" width="220" height="130" rx="15" fill="#747FFF"/>
<mask id="mask17_1_574" style="mask-type:luminance" maskUnits="userSpaceOnUse" x="341" y="329" width="53" height="34">
<path d="M341.667 329H393.667V362.333H341.667V329Z" fill="white"/>
</mask>
<g mask="url(#mask17_1_574)">
<mask id="mask18_1_574" style="mask-type:luminance" maskUnits="userSpaceOnUse" x="306" y="294" width="118" height="118">
<path d="M333.458 294.969L423.458 321.719L396.713 411.719L306.708 384.974L333.458 294.969Z" fill="white"/>
</mask>
<g mask="url(#mask18_1_574)">
<mask id="mask19_1_574" style="mask-type:luminance" maskUnits="userSpaceOnUse" x="306" y="294" width="118" height="118">
<path d="M333.458 294.969L423.458 321.719L396.713 411.719L306.708 384.974L333.458 294.969Z" fill="white"/>
</mask>
<g mask="url(#mask19_1_574)">
<path d="M366.016 345.531C364.073 352.068 357.208 355.786 350.677 353.844C344.146 351.901 340.422 345.036 342.365 338.505C344.307 331.969 351.172 328.25 357.703 330.193C364.24 332.135 367.958 339 366.016 345.531ZM383.578 337.88C377.047 335.937 370.177 339.661 368.24 346.193C366.297 352.724 370.016 359.589 376.547 361.531C383.083 363.474 389.948 359.755 391.891 353.219C393.828 346.687 390.109 339.823 383.578 337.88Z" fill="white"/>
</g>
</g>
</g>
<mask id="mask20_1_574" style="mask-type:luminance" maskUnits="userSpaceOnUse" x="345" y="334" width="44" height="25">
<path d="M345.667 334.333H388.333V358.333H345.667V334.333Z" fill="white"/>
</mask>
<g mask="url(#mask20_1_574)">
<mask id="mask21_1_574" style="mask-type:luminance" maskUnits="userSpaceOnUse" x="306" y="294" width="118" height="118">
<path d="M333.458 294.969L423.458 321.719L396.713 411.719L306.708 384.974L333.458 294.969Z" fill="white"/>
</mask>
<g mask="url(#mask21_1_574)">
<mask id="mask22_1_574" style="mask-type:luminance" maskUnits="userSpaceOnUse" x="306" y="294" width="118" height="118">
<path d="M333.458 294.969L423.458 321.719L396.713 411.719L306.708 384.974L333.458 294.969Z" fill="white"/>
</mask>
<g mask="url(#mask22_1_574)">
<path d="M361.411 344.161C360.224 348.151 356.036 350.406 352.068 349.224C348.099 348.047 345.823 343.854 347.005 339.88C348.182 335.911 352.38 333.641 356.349 334.818C360.318 336 362.594 340.177 361.411 344.161ZM382.203 342.505C378.219 341.318 374.042 343.599 372.859 347.568C371.682 351.536 373.953 355.729 377.922 356.911C381.891 358.089 386.088 355.818 387.266 351.849C388.448 347.88 386.187 343.687 382.203 342.505Z" fill="#2E2E2E"/>
</g>
</g>
</g>
<mask id="mask23_1_574" style="mask-type:luminance" maskUnits="userSpaceOnUse" x="339" y="353" width="47" height="22">
<path d="M339 353H385.667V374.333H339V353Z" fill="white"/>
</mask>
<g mask="url(#mask23_1_574)">
<mask id="mask24_1_574" style="mask-type:luminance" maskUnits="userSpaceOnUse" x="306" y="294" width="118" height="118">
<path d="M333.458 294.969L423.458 321.719L396.714 411.719L306.708 384.974L333.458 294.969Z" fill="white"/>
</mask>
<g mask="url(#mask24_1_574)">
<mask id="mask25_1_574" style="mask-type:luminance" maskUnits="userSpaceOnUse" x="306" y="294" width="118" height="118">
<path d="M333.458 294.969L423.458 321.719L396.714 411.719L306.708 384.974L333.458 294.969Z" fill="white"/>
</mask>
<g mask="url(#mask25_1_574)">
<path d="M384.177 370.198C359.604 380.87 345.734 365.281 340.474 357.193C339.474 355.651 340.943 353.703 342.703 354.229L383.964 366.49C385.734 367 385.875 369.458 384.177 370.198Z" fill="#2E2E2E"/>
</g>
</g>
</g>
<rect y="292" width="125" height="125" rx="62.5" fill="#FFBE00"/>
<mask id="mask26_1_574" style="mask-type:luminance" maskUnits="userSpaceOnUse" x="36" y="337" width="55" height="35">
<path d="M36 337H90.6667V371.667H36V337Z" fill="white"/>
</mask>
<g mask="url(#mask26_1_574)">
<mask id="mask27_1_574" style="mask-type:luminance" maskUnits="userSpaceOnUse" x="10" y="304" width="103" height="104">
<path d="M33.125 304.896L112.906 327.427L90.375 407.208L10.5938 384.682L33.125 304.896Z" fill="white"/>
</mask>
<g mask="url(#mask27_1_574)">
<mask id="mask28_1_574" style="mask-type:luminance" maskUnits="userSpaceOnUse" x="-19" y="296" width="143" height="181">
<path d="M23.9167 296.599L123.885 324.828L81 476.703L-18.9688 448.474L23.9167 296.599Z" fill="white"/>
</mask>
<g mask="url(#mask28_1_574)">
<path d="M47.3438 352.349C40.8281 350.51 37.8281 343.469 37.5 342.688C36.7031 340.745 37.651 338.537 39.625 337.745C41.5521 336.979 43.7708 337.896 44.5729 339.839C45.0469 340.99 46.9948 344.417 49.5104 345.057C51.1094 345.469 53.0156 344.771 55.276 342.969C56.9219 341.646 59.2917 341.917 60.6094 343.563C61.9323 345.214 61.6615 347.578 60.0156 348.896C54.75 353.094 50.3333 353.12 47.5573 352.375C47.5104 352.401 47.4115 352.37 47.3438 352.349ZM75.7552 360.375C78.5417 361.089 82.9531 361.094 88.2188 356.896C89.8646 355.578 90.099 353.203 88.8125 351.563C87.4896 349.917 85.125 349.646 83.4792 350.969C81.2656 352.745 79.3073 353.469 77.7135 353.057C75.1667 352.412 73.25 348.99 72.776 347.839C71.974 345.896 69.8021 344.953 67.8281 345.745C65.8906 346.547 64.9375 348.755 65.7031 350.688C66.0208 351.505 69.0313 358.51 75.5469 360.349C75.6198 360.339 75.6875 360.354 75.7552 360.375ZM57.1667 371.12C59.9531 371.833 64.3594 371.839 69.625 367.641C71.2708 366.323 71.5052 363.948 70.2188 362.307C68.901 360.662 66.5313 360.396 64.8854 361.714C62.6719 363.495 60.7188 364.219 59.1198 363.802C56.6042 363.167 54.6563 359.734 54.1823 358.583C53.3802 356.646 51.2083 355.703 49.2344 356.495C47.2969 357.292 46.3438 359.5 47.1094 361.432C47.4271 362.25 50.4375 369.255 56.9531 371.099C57.0313 371.083 57.099 371.099 57.1667 371.12Z" fill="#2E2E2E"/>
</g>
</g>
</g>
</svg>
