<svg xmlns="http://www.w3.org/2000/svg" xmlns:xlink="http://www.w3.org/1999/xlink" width="574" zoomAndPan="magnify" viewBox="0 0 430.5 508.499984" height="678" preserveAspectRatio="xMidYMid meet" version="1.0"><defs><clipPath id="1d09625426"><path d="M 46.214844 250.226562 L 200 250.226562 L 200 268.113281 L 46.214844 268.113281 Z M 46.214844 250.226562 " clip-rule="nonzero"/></clipPath><clipPath id="47490b9309"><path d="M 37.265625 284.324219 L 55.152344 284.324219 L 55.152344 438.136719 L 37.265625 438.136719 Z M 37.265625 284.324219 " clip-rule="nonzero"/></clipPath><clipPath id="588bccca38"><path d="M 1.40625 214.363281 L 91.019531 214.363281 L 91.019531 303.976562 L 1.40625 303.976562 Z M 1.40625 214.363281 " clip-rule="nonzero"/></clipPath><clipPath id="08a4e9ed74"><path d="M 46.214844 214.363281 C 21.464844 214.363281 1.40625 234.421875 1.40625 259.167969 C 1.40625 283.914062 21.464844 303.976562 46.214844 303.976562 C 70.960938 303.976562 91.019531 283.914062 91.019531 259.167969 C 91.019531 234.421875 70.960938 214.363281 46.214844 214.363281 Z M 46.214844 214.363281 " clip-rule="nonzero"/></clipPath><clipPath id="ac08541680"><path d="M 13 227 L 78 227 L 78 292 L 13 292 Z M 13 227 " clip-rule="nonzero"/></clipPath><clipPath id="10c2aac6b9"><path d="M 21.84375 215.476562 L 89.34375 235.539062 L 69.285156 303.039062 L 1.78125 282.980469 Z M 21.84375 215.476562 " clip-rule="nonzero"/></clipPath><clipPath id="35d6c38e7d"><path d="M 21.84375 215.476562 L 89.34375 235.539062 L 69.285156 303.039062 L 1.78125 282.980469 Z M 21.84375 215.476562 " clip-rule="nonzero"/></clipPath><clipPath id="3d56f17016"><path d="M 28 241 L 67 241 L 67 266 L 28 266 Z M 28 241 " clip-rule="nonzero"/></clipPath><clipPath id="a998e57d39"><path d="M 21.84375 215.476562 L 89.34375 235.539062 L 69.285156 303.039062 L 1.78125 282.980469 Z M 21.84375 215.476562 " clip-rule="nonzero"/></clipPath><clipPath id="95dbaa4dea"><path d="M 21.84375 215.476562 L 89.34375 235.539062 L 69.285156 303.039062 L 1.78125 282.980469 Z M 21.84375 215.476562 " clip-rule="nonzero"/></clipPath><clipPath id="b2565d9cf0"><path d="M 31 245 L 63 245 L 63 263 L 31 263 Z M 31 245 " clip-rule="nonzero"/></clipPath><clipPath id="3bf55849dd"><path d="M 21.84375 215.476562 L 89.34375 235.539062 L 69.285156 303.039062 L 1.78125 282.980469 Z M 21.84375 215.476562 " clip-rule="nonzero"/></clipPath><clipPath id="558d020639"><path d="M 21.84375 215.476562 L 89.34375 235.539062 L 69.285156 303.039062 L 1.78125 282.980469 Z M 21.84375 215.476562 " clip-rule="nonzero"/></clipPath><clipPath id="ad5fb6a5da"><path d="M 17 252 L 71 252 L 71 277 L 17 277 Z M 17 252 " clip-rule="nonzero"/></clipPath><clipPath id="3e364d2fcf"><path d="M 21.84375 215.476562 L 89.34375 235.539062 L 69.285156 303.039062 L 1.78125 282.980469 Z M 21.84375 215.476562 " clip-rule="nonzero"/></clipPath><clipPath id="a474dfd50e"><path d="M 21.84375 215.476562 L 89.34375 235.539062 L 69.285156 303.039062 L 1.78125 282.980469 Z M 21.84375 215.476562 " clip-rule="nonzero"/></clipPath><clipPath id="fb07c17f6f"><path d="M 26 259 L 61 259 L 61 275 L 26 275 Z M 26 259 " clip-rule="nonzero"/></clipPath><clipPath id="3ea8b08b40"><path d="M 21.84375 215.476562 L 89.34375 235.539062 L 69.285156 303.039062 L 1.78125 282.980469 Z M 21.84375 215.476562 " clip-rule="nonzero"/></clipPath><clipPath id="17b98061de"><path d="M 21.84375 215.476562 L 89.34375 235.539062 L 69.285156 303.039062 L 1.78125 282.980469 Z M 21.84375 215.476562 " clip-rule="nonzero"/></clipPath><clipPath id="2434d027f2"><path d="M 239.667969 250.226562 L 393.480469 250.226562 L 393.480469 268.113281 L 239.667969 268.113281 Z M 239.667969 250.226562 " clip-rule="nonzero"/></clipPath><clipPath id="0a25793040"><path d="M 374.492188 84.894531 L 392.378906 84.894531 L 392.378906 238.707031 L 374.492188 238.707031 Z M 374.492188 84.894531 " clip-rule="nonzero"/></clipPath><clipPath id="5bc0201ad2"><path d="M 338.898438 214.363281 L 428.511719 214.363281 L 428.511719 303.976562 L 338.898438 303.976562 Z M 338.898438 214.363281 " clip-rule="nonzero"/></clipPath><clipPath id="15a9eb277f"><path d="M 383.703125 214.363281 C 358.957031 214.363281 338.898438 234.421875 338.898438 259.167969 C 338.898438 283.914062 358.957031 303.976562 383.703125 303.976562 C 408.449219 303.976562 428.511719 283.914062 428.511719 259.167969 C 428.511719 234.421875 408.449219 214.363281 383.703125 214.363281 Z M 383.703125 214.363281 " clip-rule="nonzero"/></clipPath><clipPath id="9f5d0695fd"><path d="M 349 224 L 418 224 L 418 293 L 349 293 Z M 349 224 " clip-rule="nonzero"/></clipPath><clipPath id="d840c5f3e9"><path d="M 338.367188 231.21875 L 411.195312 213.679688 L 428.734375 286.507812 L 355.90625 304.050781 Z M 338.367188 231.21875 " clip-rule="nonzero"/></clipPath><clipPath id="b121d41bab"><path d="M 338.367188 231.21875 L 411.195312 213.679688 L 428.734375 286.507812 L 355.90625 304.050781 Z M 338.367188 231.21875 " clip-rule="nonzero"/></clipPath><clipPath id="199e59eddb"><path d="M 361 240 L 403 240 L 403 266 L 361 266 Z M 361 240 " clip-rule="nonzero"/></clipPath><clipPath id="0c7d09f444"><path d="M 338.367188 231.21875 L 411.195312 213.679688 L 428.734375 286.507812 L 355.90625 304.050781 Z M 338.367188 231.21875 " clip-rule="nonzero"/></clipPath><clipPath id="181f4b52dd"><path d="M 338.367188 231.21875 L 411.195312 213.679688 L 428.734375 286.507812 L 355.90625 304.050781 Z M 338.367188 231.21875 " clip-rule="nonzero"/></clipPath><clipPath id="0b794f187d"><path d="M 365 244 L 399 244 L 399 262 L 365 262 Z M 365 244 " clip-rule="nonzero"/></clipPath><clipPath id="6366384d39"><path d="M 338.367188 231.21875 L 411.195312 213.679688 L 428.734375 286.507812 L 355.90625 304.050781 Z M 338.367188 231.21875 " clip-rule="nonzero"/></clipPath><clipPath id="9c5ac38b30"><path d="M 338.367188 231.21875 L 411.195312 213.679688 L 428.734375 286.507812 L 355.90625 304.050781 Z M 338.367188 231.21875 " clip-rule="nonzero"/></clipPath><clipPath id="4233364c99"><path d="M 356 253 L 414 253 L 414 276 L 356 276 Z M 356 253 " clip-rule="nonzero"/></clipPath><clipPath id="c5f810809a"><path d="M 338.367188 231.21875 L 411.195312 213.679688 L 428.734375 286.507812 L 355.90625 304.050781 Z M 338.367188 231.21875 " clip-rule="nonzero"/></clipPath><clipPath id="a170495f2f"><path d="M 338.367188 231.21875 L 411.195312 213.679688 L 428.734375 286.507812 L 355.90625 304.050781 Z M 338.367188 231.21875 " clip-rule="nonzero"/></clipPath><clipPath id="c670d55974"><path d="M 367 260 L 404 260 L 404 275 L 367 275 Z M 367 260 " clip-rule="nonzero"/></clipPath><clipPath id="8c3b93850f"><path d="M 338.367188 231.21875 L 411.195312 213.679688 L 428.734375 286.507812 L 355.90625 304.050781 Z M 338.367188 231.21875 " clip-rule="nonzero"/></clipPath><clipPath id="ede9d4862b"><path d="M 338.367188 231.21875 L 411.195312 213.679688 L 428.734375 286.507812 L 355.90625 304.050781 Z M 338.367188 231.21875 " clip-rule="nonzero"/></clipPath><clipPath id="2ca2434e7d"><path d="M 51.097656 446.199219 L 204.914062 446.199219 L 204.914062 464.085938 L 51.097656 464.085938 Z M 51.097656 446.199219 " clip-rule="nonzero"/></clipPath><clipPath id="ff9f498bab"><path d="M 0.273438 413.742188 L 92 413.742188 L 92 501.035156 L 0.273438 501.035156 Z M 0.273438 413.742188 " clip-rule="nonzero"/></clipPath><clipPath id="4fe070bb19"><path d="M 27.242188 413.742188 L 65.183594 413.742188 C 72.335938 413.742188 79.195312 416.585938 84.253906 421.640625 C 89.308594 426.699219 92.152344 433.558594 92.152344 440.710938 L 92.152344 474.070312 C 92.152344 488.960938 80.078125 501.035156 65.183594 501.035156 L 27.242188 501.035156 C 20.089844 501.035156 13.230469 498.195312 8.171875 493.136719 C 3.117188 488.082031 0.273438 481.222656 0.273438 474.070312 L 0.273438 440.710938 C 0.273438 425.816406 12.347656 413.742188 27.242188 413.742188 Z M 27.242188 413.742188 " clip-rule="nonzero"/></clipPath><clipPath id="728d795a29"><path d="M 7 422 L 84 422 L 84 497 L 7 497 Z M 7 422 " clip-rule="nonzero"/></clipPath><clipPath id="939ee11087"><path d="M 24.84375 419.921875 L 84.679688 436.820312 L 67.78125 496.65625 L 7.945312 479.761719 Z M 24.84375 419.921875 " clip-rule="nonzero"/></clipPath><clipPath id="582ec6434e"><path d="M 17.9375 413.699219 L 92.914062 434.871094 L 60.75 548.777344 L -14.226562 527.605469 Z M 17.9375 413.699219 " clip-rule="nonzero"/></clipPath><clipPath id="7b4f249604"><path d="M 14 450 L 74 450 L 74 478 L 14 478 Z M 14 450 " clip-rule="nonzero"/></clipPath><clipPath id="8b9ab0a5c3"><path d="M 24.84375 419.921875 L 84.679688 436.820312 L 67.78125 496.65625 L 7.945312 479.761719 Z M 24.84375 419.921875 " clip-rule="nonzero"/></clipPath><clipPath id="08b7849a49"><path d="M 17.9375 413.699219 L 92.914062 434.871094 L 60.75 548.777344 L -14.226562 527.605469 Z M 17.9375 413.699219 " clip-rule="nonzero"/></clipPath><clipPath id="895d128e1d"><path d="M 27 444 L 68 444 L 68 470 L 27 470 Z M 27 444 " clip-rule="nonzero"/></clipPath><clipPath id="3a404a72bd"><path d="M 24.84375 419.921875 L 84.679688 436.820312 L 67.78125 496.65625 L 7.945312 479.761719 Z M 24.84375 419.921875 " clip-rule="nonzero"/></clipPath><clipPath id="d33cd009a3"><path d="M 17.9375 413.699219 L 92.914062 434.871094 L 60.75 548.777344 L -14.226562 527.605469 Z M 17.9375 413.699219 " clip-rule="nonzero"/></clipPath><clipPath id="fbb153bd05"><path d="M 205.941406 75.632812 L 223.828125 75.632812 L 223.828125 229.445312 L 205.941406 229.445312 Z M 205.941406 75.632812 " clip-rule="nonzero"/></clipPath><clipPath id="c4558ee92d"><path d="M 204.910156 284.324219 L 222.796875 284.324219 L 222.796875 438.136719 L 204.910156 438.136719 Z M 204.910156 284.324219 " clip-rule="nonzero"/></clipPath><clipPath id="8ea6916819"><path d="M 135.21875 206.074219 L 294.921875 206.074219 L 294.921875 312.265625 L 135.21875 312.265625 Z M 135.21875 206.074219 " clip-rule="nonzero"/></clipPath><clipPath id="f7af8b7459"><path d="M 162.1875 206.074219 L 267.589844 206.074219 C 282.484375 206.074219 294.558594 218.148438 294.558594 233.042969 L 294.558594 285.296875 C 294.558594 300.191406 282.484375 312.265625 267.589844 312.265625 L 162.1875 312.265625 C 147.292969 312.265625 135.21875 300.191406 135.21875 285.296875 L 135.21875 233.042969 C 135.21875 218.148438 147.292969 206.074219 162.1875 206.074219 Z M 162.1875 206.074219 " clip-rule="nonzero"/></clipPath><clipPath id="5a77b14c7e"><path d="M 164 211 L 263 211 L 263 300.5 L 164 300.5 Z M 164 211 " clip-rule="nonzero"/></clipPath><clipPath id="814565820d"><path d="M 229.890625 55.5 L 383.703125 55.5 L 383.703125 73.386719 L 229.890625 73.386719 Z M 229.890625 55.5 " clip-rule="nonzero"/></clipPath><clipPath id="523cfb1fc6"><path d="M 337.5 19.535156 L 429.566406 19.535156 L 429.566406 106.828125 L 337.5 106.828125 Z M 337.5 19.535156 " clip-rule="nonzero"/></clipPath><clipPath id="0fe542c61d"><path d="M 364.46875 19.535156 L 402.40625 19.535156 C 409.558594 19.535156 416.421875 22.378906 421.476562 27.433594 C 426.535156 32.492188 429.375 39.351562 429.375 46.503906 L 429.375 79.859375 C 429.375 94.753906 417.300781 106.828125 402.40625 106.828125 L 364.46875 106.828125 C 357.316406 106.828125 350.457031 103.988281 345.398438 98.929688 C 340.339844 93.871094 337.5 87.011719 337.5 79.859375 L 337.5 46.503906 C 337.5 31.609375 349.574219 19.535156 364.46875 19.535156 Z M 364.46875 19.535156 " clip-rule="nonzero"/></clipPath><clipPath id="771d37c930"><path d="M 342 22 L 426 22 L 426 107 L 342 107 Z M 342 22 " clip-rule="nonzero"/></clipPath><clipPath id="e68174cbfb"><path d="M 369.554688 19.0625 L 429.527344 46.429688 L 402.160156 106.40625 L 342.1875 79.039062 Z M 369.554688 19.0625 " clip-rule="nonzero"/></clipPath><clipPath id="c81452f1d9"><path d="M 357.839844 3.441406 L 444.390625 42.9375 L 404.894531 129.492188 L 318.34375 89.996094 Z M 357.839844 3.441406 " clip-rule="nonzero"/></clipPath><clipPath id="352bb3e4d1"><path d="M 363 48 L 404 48 L 404 76 L 363 76 Z M 363 48 " clip-rule="nonzero"/></clipPath><clipPath id="5a197597c2"><path d="M 369.554688 19.0625 L 429.527344 46.429688 L 402.160156 106.40625 L 342.1875 79.039062 Z M 369.554688 19.0625 " clip-rule="nonzero"/></clipPath><clipPath id="b93174926f"><path d="M 357.839844 3.441406 L 444.390625 42.9375 L 404.894531 129.492188 L 318.34375 89.996094 Z M 357.839844 3.441406 " clip-rule="nonzero"/></clipPath><clipPath id="f55988de42"><path d="M 353 56 L 406 56 L 406 86 L 353 86 Z M 353 56 " clip-rule="nonzero"/></clipPath><clipPath id="73523e4cca"><path d="M 369.554688 19.0625 L 429.527344 46.429688 L 402.160156 106.40625 L 342.1875 79.039062 Z M 369.554688 19.0625 " clip-rule="nonzero"/></clipPath><clipPath id="ef9179d716"><path d="M 357.839844 3.441406 L 444.390625 42.9375 L 404.894531 129.492188 L 318.34375 89.996094 Z M 357.839844 3.441406 " clip-rule="nonzero"/></clipPath><clipPath id="d67d9e0818"><path d="M 366 51 L 401 51 L 401 73 L 366 73 Z M 366 51 " clip-rule="nonzero"/></clipPath><clipPath id="feb57ce570"><path d="M 369.554688 19.0625 L 429.527344 46.429688 L 402.160156 106.40625 L 342.1875 79.039062 Z M 369.554688 19.0625 " clip-rule="nonzero"/></clipPath><clipPath id="425cca62a1"><path d="M 357.839844 3.441406 L 444.390625 42.9375 L 404.894531 129.492188 L 318.34375 89.996094 Z M 357.839844 3.441406 " clip-rule="nonzero"/></clipPath><clipPath id="e613e8fc22"><path d="M 371 62 L 391 62 L 391 75 L 371 75 Z M 371 62 " clip-rule="nonzero"/></clipPath><clipPath id="48b2fff633"><path d="M 369.554688 19.0625 L 429.527344 46.429688 L 402.160156 106.40625 L 342.1875 79.039062 Z M 369.554688 19.0625 " clip-rule="nonzero"/></clipPath><clipPath id="51af1663e4"><path d="M 357.839844 3.441406 L 444.390625 42.9375 L 404.894531 129.492188 L 318.34375 89.996094 Z M 357.839844 3.441406 " clip-rule="nonzero"/></clipPath><clipPath id="a26293264d"><path d="M 151 0.046875 L 277 0.046875 L 277 126 L 151 126 Z M 151 0.046875 " clip-rule="nonzero"/></clipPath><clipPath id="8f0704304b"><path d="M 151.347656 61.457031 L 212.371094 0.433594 L 276.496094 64.554688 L 215.472656 125.578125 Z M 151.347656 61.457031 " clip-rule="nonzero"/></clipPath><clipPath id="8efe22a004"><path d="M 151.347656 61.457031 L 212.371094 0.433594 L 276.367188 64.425781 L 215.34375 125.449219 Z M 151.347656 61.457031 " clip-rule="nonzero"/></clipPath><clipPath id="6476404563"><path d="M 169 39.632812 L 258 39.632812 L 258 86.078125 L 169 86.078125 Z M 169 39.632812 " clip-rule="nonzero"/></clipPath><clipPath id="2377ec07ea"><path d="M 163 406 L 265 406 L 265 507.957031 L 163 507.957031 Z M 163 406 " clip-rule="nonzero"/></clipPath><clipPath id="885990c037"><path d="M 163.410156 454.660156 L 214.1875 406.867188 L 264.40625 460.222656 L 213.628906 508.015625 Z M 163.410156 454.660156 " clip-rule="nonzero"/></clipPath><clipPath id="1e92a9ce48"><path d="M 163.410156 454.660156 L 214.1875 406.867188 L 264.304688 460.117188 L 213.527344 507.910156 Z M 163.410156 454.660156 " clip-rule="nonzero"/></clipPath><clipPath id="eb2fbc72d8"><path d="M 185 432 L 243 432 L 243 481 L 185 481 Z M 185 432 " clip-rule="nonzero"/></clipPath><clipPath id="9ada1cc65b"><path d="M 185.402344 445.09375 L 233.175781 432.363281 L 242.628906 467.835938 L 194.851562 480.5625 Z M 185.402344 445.09375 " clip-rule="nonzero"/></clipPath><clipPath id="16e44f7b1a"><path d="M 164.476562 426.457031 L 240.484375 406.207031 L 261.890625 486.558594 L 185.882812 506.804688 Z M 164.476562 426.457031 " clip-rule="nonzero"/></clipPath><clipPath id="6abf5f79fc"><path d="M 195 441 L 229 441 L 229 463 L 195 463 Z M 195 441 " clip-rule="nonzero"/></clipPath><clipPath id="b6f85a683b"><path d="M 185.402344 445.09375 L 233.175781 432.363281 L 242.628906 467.835938 L 194.851562 480.5625 Z M 185.402344 445.09375 " clip-rule="nonzero"/></clipPath><clipPath id="3d06dc6f0e"><path d="M 164.476562 426.457031 L 240.484375 406.207031 L 261.890625 486.558594 L 185.882812 506.804688 Z M 164.476562 426.457031 " clip-rule="nonzero"/></clipPath><clipPath id="6d474a8871"><path d="M 191 451 L 238 451 L 238 472 L 191 472 Z M 191 451 " clip-rule="nonzero"/></clipPath><clipPath id="6df0271057"><path d="M 185.402344 445.09375 L 233.175781 432.363281 L 242.628906 467.835938 L 194.851562 480.5625 Z M 185.402344 445.09375 " clip-rule="nonzero"/></clipPath><clipPath id="0665c6c94f"><path d="M 164.476562 426.457031 L 240.484375 406.207031 L 261.890625 486.558594 L 185.882812 506.804688 Z M 164.476562 426.457031 " clip-rule="nonzero"/></clipPath><clipPath id="494d04062a"><path d="M 198 455 L 232 455 L 232 470 L 198 470 Z M 198 455 " clip-rule="nonzero"/></clipPath><clipPath id="6a821b2d29"><path d="M 185.402344 445.09375 L 233.175781 432.363281 L 242.628906 467.835938 L 194.851562 480.5625 Z M 185.402344 445.09375 " clip-rule="nonzero"/></clipPath><clipPath id="2f9d06f976"><path d="M 164.476562 426.457031 L 240.484375 406.207031 L 261.890625 486.558594 L 185.882812 506.804688 Z M 164.476562 426.457031 " clip-rule="nonzero"/></clipPath><clipPath id="ebb1f035a0"><path d="M 198 444 L 226 444 L 226 459 L 198 459 Z M 198 444 " clip-rule="nonzero"/></clipPath><clipPath id="374be02906"><path d="M 185.402344 445.09375 L 233.175781 432.363281 L 242.628906 467.835938 L 194.851562 480.5625 Z M 185.402344 445.09375 " clip-rule="nonzero"/></clipPath><clipPath id="1d606877dd"><path d="M 164.476562 426.457031 L 240.484375 406.207031 L 261.890625 486.558594 L 185.882812 506.804688 Z M 164.476562 426.457031 " clip-rule="nonzero"/></clipPath></defs><g clip-path="url(#1d09625426)"><path fill="#ffde59" d="M 46.214844 250.226562 L 200 250.226562 L 200 268.113281 L 46.214844 268.113281 Z M 46.214844 250.226562 " fill-opacity="1" fill-rule="nonzero"/></g><g clip-path="url(#47490b9309)"><path fill="#ffde59" d="M 37.265625 438.136719 L 37.265625 284.347656 L 55.152344 284.347656 L 55.152344 438.136719 Z M 37.265625 438.136719 " fill-opacity="1" fill-rule="nonzero"/></g><g clip-path="url(#588bccca38)"><g clip-path="url(#08a4e9ed74)"><path fill="#ffbe00" d="M 1.40625 214.363281 L 91.019531 214.363281 L 91.019531 303.976562 L 1.40625 303.976562 Z M 1.40625 214.363281 " fill-opacity="1" fill-rule="nonzero"/></g></g><g clip-path="url(#ac08541680)"><g clip-path="url(#10c2aac6b9)"><g clip-path="url(#35d6c38e7d)"><path fill="#ffbe00" d="M 73.570312 243.917969 C 81.980469 259.453125 76.207031 278.882812 60.675781 287.304688 C 45.148438 295.730469 25.757812 289.96875 17.347656 274.429688 C 8.941406 258.894531 14.714844 239.464844 30.242188 231.039062 C 45.773438 222.617188 65.167969 228.367188 73.570312 243.917969 Z M 73.570312 243.917969 " fill-opacity="1" fill-rule="nonzero"/></g></g></g><g clip-path="url(#3d56f17016)"><g clip-path="url(#a998e57d39)"><g clip-path="url(#95dbaa4dea)"><path fill="#ffffff" d="M 46.261719 253.398438 C 44.804688 258.300781 39.65625 261.089844 34.757812 259.632812 C 29.859375 258.175781 27.066406 253.027344 28.523438 248.128906 C 29.980469 243.226562 35.128906 240.4375 40.027344 241.894531 C 44.929688 243.351562 47.71875 248.5 46.261719 253.398438 Z M 59.433594 247.660156 C 54.535156 246.203125 49.382812 248.996094 47.929688 253.894531 C 46.472656 258.792969 49.261719 263.941406 54.160156 265.398438 C 59.0625 266.855469 64.210938 264.066406 65.667969 259.164062 C 67.121094 254.265625 64.332031 249.117188 59.433594 247.660156 Z M 59.433594 247.660156 " fill-opacity="1" fill-rule="nonzero"/></g></g></g><g clip-path="url(#b2565d9cf0)"><g clip-path="url(#3bf55849dd)"><g clip-path="url(#558d020639)"><path fill="#2e2e2e" d="M 42.808594 252.371094 C 41.917969 255.363281 38.777344 257.054688 35.800781 256.167969 C 32.824219 255.285156 31.117188 252.140625 32.003906 249.160156 C 32.886719 246.183594 36.035156 244.480469 39.011719 245.363281 C 41.988281 246.25 43.695312 249.382812 42.808594 252.371094 Z M 58.402344 251.128906 C 55.414062 250.238281 52.28125 251.949219 51.394531 254.925781 C 50.511719 257.902344 52.214844 261.046875 55.191406 261.933594 C 58.167969 262.816406 61.316406 261.113281 62.199219 258.136719 C 63.085938 255.160156 61.390625 252.015625 58.402344 251.128906 Z M 58.402344 251.128906 " fill-opacity="1" fill-rule="nonzero"/></g></g></g><g clip-path="url(#ad5fb6a5da)"><g clip-path="url(#3e364d2fcf)"><g clip-path="url(#a474dfd50e)"><path fill="#ffbe00" d="M 69.957031 272.144531 C 69.050781 275.183594 65.859375 276.914062 62.820312 276.011719 C 59.78125 275.109375 58.050781 271.914062 58.953125 268.875 C 59.855469 265.839844 63.050781 264.109375 66.089844 265.011719 C 69.128906 265.914062 70.859375 269.109375 69.957031 272.144531 Z M 25.007812 252.789062 C 21.96875 251.886719 18.773438 253.617188 17.871094 256.65625 C 16.96875 259.691406 18.699219 262.886719 21.738281 263.789062 C 24.773438 264.691406 27.96875 262.960938 28.871094 259.921875 C 29.769531 256.898438 28.042969 253.691406 25.007812 252.789062 Z M 25.007812 252.789062 " fill-opacity="1" fill-rule="nonzero"/></g></g></g><g clip-path="url(#fb07c17f6f)"><g clip-path="url(#3ea8b08b40)"><g clip-path="url(#17b98061de)"><path fill="#2e2e2e" d="M 59.882812 271.898438 C 41.453125 279.902344 31.050781 268.210938 27.105469 262.144531 C 26.355469 260.988281 27.457031 259.527344 28.777344 259.921875 L 59.722656 269.117188 C 61.050781 269.5 61.15625 271.34375 59.882812 271.898438 Z M 59.882812 271.898438 " fill-opacity="1" fill-rule="nonzero"/></g></g></g><g clip-path="url(#2434d027f2)"><path fill="#ffde59" d="M 239.667969 250.226562 L 393.457031 250.226562 L 393.457031 268.113281 L 239.667969 268.113281 Z M 239.667969 250.226562 " fill-opacity="1" fill-rule="nonzero"/></g><g clip-path="url(#0a25793040)"><path fill="#ffde59" d="M 374.492188 238.707031 L 374.492188 84.921875 L 392.378906 84.921875 L 392.378906 238.707031 Z M 374.492188 238.707031 " fill-opacity="1" fill-rule="nonzero"/></g><g clip-path="url(#5bc0201ad2)"><g clip-path="url(#15a9eb277f)"><path fill="#ffbe00" d="M 338.898438 214.363281 L 428.511719 214.363281 L 428.511719 303.976562 L 338.898438 303.976562 Z M 338.898438 214.363281 " fill-opacity="1" fill-rule="nonzero"/></g></g><g clip-path="url(#9f5d0695fd)"><g clip-path="url(#d840c5f3e9)"><g clip-path="url(#b121d41bab)"><path fill="#ffbe00" d="M 401.179688 229.804688 C 417.214844 239.625 422.265625 260.597656 412.460938 276.644531 C 402.65625 292.6875 381.722656 297.730469 365.6875 287.910156 C 349.652344 278.085938 344.601562 257.113281 354.40625 241.070312 C 364.210938 225.023438 385.144531 219.96875 401.179688 229.804688 Z M 401.179688 229.804688 " fill-opacity="1" fill-rule="nonzero"/></g></g></g><g clip-path="url(#199e59eddb)"><g clip-path="url(#0c7d09f444)"><g clip-path="url(#181f4b52dd)"><path fill="#ffffff" d="M 381.09375 253.109375 C 382.367188 258.398438 379.113281 263.71875 373.824219 264.992188 C 368.535156 266.265625 363.21875 263.011719 361.945312 257.722656 C 360.667969 252.433594 363.921875 247.117188 369.210938 245.84375 C 374.5 244.566406 379.816406 247.820312 381.09375 253.109375 Z M 390.160156 240.796875 C 384.871094 242.070312 381.617188 247.386719 382.890625 252.675781 C 384.164062 257.96875 389.480469 261.21875 394.769531 259.945312 C 400.0625 258.671875 403.3125 253.355469 402.039062 248.066406 C 400.765625 242.777344 395.449219 239.523438 390.160156 240.796875 Z M 390.160156 240.796875 " fill-opacity="1" fill-rule="nonzero"/></g></g></g><g clip-path="url(#0b794f187d)"><g clip-path="url(#6366384d39)"><g clip-path="url(#9c5ac38b30)"><path fill="#2e2e2e" d="M 377.363281 254.007812 C 378.140625 257.234375 376.148438 260.472656 372.9375 261.246094 C 369.722656 262.019531 366.472656 260.03125 365.699219 256.816406 C 364.925781 253.605469 366.914062 250.355469 370.125 249.582031 C 373.339844 248.808594 376.585938 250.78125 377.363281 254.007812 Z M 391.0625 244.539062 C 387.832031 245.316406 385.859375 248.5625 386.632812 251.777344 C 387.40625 254.988281 390.65625 256.976562 393.871094 256.203125 C 397.082031 255.429688 399.070312 252.179688 398.296875 248.96875 C 397.523438 245.753906 394.289062 243.761719 391.0625 244.539062 Z M 391.0625 244.539062 " fill-opacity="1" fill-rule="nonzero"/></g></g></g><g clip-path="url(#4233364c99)"><g clip-path="url(#c5f810809a)"><g clip-path="url(#a170495f2f)"><path fill="#ffbe00" d="M 412.914062 257.730469 C 413.707031 261.011719 411.6875 264.308594 408.40625 265.097656 C 405.128906 265.886719 401.832031 263.871094 401.039062 260.589844 C 400.25 257.3125 402.269531 254.011719 405.546875 253.222656 C 408.828125 252.433594 412.125 254.453125 412.914062 257.730469 Z M 361.191406 263.890625 C 357.910156 264.683594 355.894531 267.980469 356.683594 271.257812 C 357.472656 274.539062 360.769531 276.558594 364.050781 275.765625 C 367.332031 274.976562 369.347656 271.679688 368.558594 268.398438 C 367.773438 265.132812 364.46875 263.101562 361.191406 263.890625 Z M 361.191406 263.890625 " fill-opacity="1" fill-rule="nonzero"/></g></g></g><g clip-path="url(#c670d55974)"><g clip-path="url(#8c3b93850f)"><g clip-path="url(#ede9d4862b)"><path fill="#2e2e2e" d="M 403.507812 262.878906 C 390.804688 280.082031 374.984375 274.867188 368.117188 271.386719 C 366.808594 270.722656 367.042969 268.792969 368.472656 268.449219 L 401.875 260.402344 C 403.300781 260.046875 404.382812 261.6875 403.507812 262.878906 Z M 403.507812 262.878906 " fill-opacity="1" fill-rule="nonzero"/></g></g></g><g clip-path="url(#2ca2434e7d)"><path fill="#ffde59" d="M 51.097656 446.199219 L 204.886719 446.199219 L 204.886719 464.085938 L 51.097656 464.085938 Z M 51.097656 446.199219 " fill-opacity="1" fill-rule="nonzero"/></g><g clip-path="url(#ff9f498bab)"><g clip-path="url(#4fe070bb19)"><path fill="#ff5761" d="M 0.273438 413.742188 L 92 413.742188 L 92 501.039062 L 0.273438 501.039062 Z M 0.273438 413.742188 " fill-opacity="1" fill-rule="nonzero"/></g></g><g clip-path="url(#728d795a29)"><g clip-path="url(#939ee11087)"><g clip-path="url(#582ec6434e)"><path fill="#ff5761" d="M 23.277344 537.730469 C 2.726562 531.925781 -9.351562 510.34375 -3.550781 489.792969 L 7.347656 451.195312 C 13.152344 430.644531 34.734375 418.566406 55.285156 424.371094 C 75.839844 430.171875 87.917969 451.757812 82.113281 472.308594 L 71.214844 510.90625 C 65.410156 531.457031 43.828125 543.535156 23.277344 537.730469 Z M 23.277344 537.730469 " fill-opacity="1" fill-rule="nonzero"/></g></g></g><g clip-path="url(#7b4f249604)"><g clip-path="url(#8b9ab0a5c3)"><g clip-path="url(#08b7849a49)"><path fill="#ff5761" d="M 73.742188 472.429688 C 72.765625 475.898438 69.160156 477.914062 65.695312 476.9375 C 62.226562 475.957031 60.210938 472.355469 61.191406 468.886719 C 62.167969 465.417969 65.773438 463.402344 69.238281 464.382812 C 72.707031 465.363281 74.722656 468.964844 73.742188 472.429688 Z M 22.441406 451.167969 C 18.976562 450.1875 15.371094 452.203125 14.394531 455.671875 C 13.414062 459.140625 15.429688 462.742188 18.898438 463.722656 C 22.363281 464.699219 25.972656 462.660156 26.945312 459.21875 C 27.917969 455.773438 25.910156 452.148438 22.441406 451.167969 Z M 22.441406 451.167969 " fill-opacity="1" fill-rule="nonzero"/></g></g></g><g clip-path="url(#895d128e1d)"><g clip-path="url(#3a404a72bd)"><g clip-path="url(#d33cd009a3)"><path fill="#2e2e2e" d="M 35.507812 455.511719 C 30.621094 454.132812 28.371094 448.851562 28.125 448.265625 C 27.527344 446.808594 28.238281 445.152344 29.71875 444.558594 C 31.164062 443.984375 32.828125 444.671875 33.429688 446.128906 C 33.785156 446.992188 35.246094 449.5625 37.132812 450.042969 C 38.332031 450.351562 39.761719 449.828125 41.457031 448.476562 C 42.691406 447.484375 44.46875 447.6875 45.457031 448.921875 C 46.449219 450.160156 46.246094 451.933594 45.011719 452.921875 C 41.0625 456.070312 37.75 456.089844 35.667969 455.53125 C 35.632812 455.550781 35.558594 455.527344 35.507812 455.511719 Z M 56.816406 461.53125 C 58.90625 462.066406 62.214844 462.070312 66.164062 458.921875 C 67.398438 457.933594 67.574219 456.152344 66.609375 454.921875 C 65.617188 453.6875 63.84375 453.484375 62.609375 454.476562 C 60.949219 455.808594 59.480469 456.351562 58.285156 456.042969 C 56.375 455.558594 54.9375 452.992188 54.582031 452.128906 C 53.980469 450.671875 52.351562 449.964844 50.871094 450.558594 C 49.417969 451.160156 48.703125 452.816406 49.277344 454.265625 C 49.515625 454.878906 51.773438 460.132812 56.660156 461.511719 C 56.714844 461.503906 56.765625 461.515625 56.816406 461.53125 Z M 42.875 469.589844 C 44.964844 470.125 48.269531 470.128906 52.21875 466.980469 C 53.453125 465.992188 53.628906 464.210938 52.664062 462.980469 C 51.675781 461.746094 49.898438 461.546875 48.664062 462.535156 C 47.003906 463.871094 45.539062 464.414062 44.339844 464.101562 C 42.453125 463.625 40.992188 461.050781 40.636719 460.1875 C 40.035156 458.734375 38.40625 458.027344 36.925781 458.621094 C 35.472656 459.21875 34.757812 460.875 35.332031 462.324219 C 35.570312 462.9375 37.828125 468.191406 42.714844 469.574219 C 42.773438 469.5625 42.824219 469.574219 42.875 469.589844 Z M 42.875 469.589844 " fill-opacity="1" fill-rule="nonzero"/></g></g></g><g clip-path="url(#fbb153bd05)"><path fill="#ffde59" d="M 205.941406 229.445312 L 205.941406 75.65625 L 223.828125 75.65625 L 223.828125 229.445312 Z M 205.941406 229.445312 " fill-opacity="1" fill-rule="nonzero"/></g><g clip-path="url(#c4558ee92d)"><path fill="#ffde59" d="M 204.910156 438.136719 L 204.910156 284.347656 L 222.796875 284.347656 L 222.796875 438.136719 Z M 204.910156 438.136719 " fill-opacity="1" fill-rule="nonzero"/></g><g clip-path="url(#8ea6916819)"><g clip-path="url(#f7af8b7459)"><path fill="#747fff" d="M 135.21875 206.074219 L 294.507812 206.074219 L 294.507812 312.265625 L 135.21875 312.265625 Z M 135.21875 206.074219 " fill-opacity="1" fill-rule="nonzero"/></g></g><g clip-path="url(#5a77b14c7e)"><path fill="#747fff" d="M 201.285156 218.855469 C 206.875 209.171875 220.828125 209.171875 226.414062 218.855469 L 260.929688 278.636719 C 266.519531 288.316406 259.53125 300.398438 248.355469 300.398438 L 179.347656 300.398438 C 168.167969 300.398438 161.183594 288.296875 166.773438 278.636719 L 184.03125 248.746094 Z M 201.285156 218.855469 " fill-opacity="1" fill-rule="nonzero"/></g><path fill="#ffffff" d="M 212.796875 265.628906 C 212.796875 271.847656 207.761719 276.882812 201.542969 276.882812 C 195.324219 276.882812 190.285156 271.847656 190.285156 265.628906 C 190.285156 259.410156 195.324219 254.371094 201.542969 254.371094 C 207.761719 254.371094 212.796875 259.410156 212.796875 265.628906 Z M 226.160156 254.371094 C 219.941406 254.371094 214.902344 259.410156 214.902344 265.628906 C 214.902344 271.847656 219.941406 276.882812 226.160156 276.882812 C 232.378906 276.882812 237.414062 271.847656 237.414062 265.628906 C 237.414062 259.410156 232.378906 254.371094 226.160156 254.371094 Z M 226.160156 254.371094 " fill-opacity="1" fill-rule="nonzero"/><path fill="#747fff" d="M 246.898438 279.285156 C 246.898438 283.140625 243.769531 286.269531 239.914062 286.269531 C 236.058594 286.269531 232.929688 283.140625 232.929688 279.285156 C 232.929688 275.425781 236.058594 272.296875 239.914062 272.296875 C 243.769531 272.296875 246.898438 275.425781 246.898438 279.285156 Z M 187.789062 272.296875 C 183.929688 272.296875 180.800781 275.425781 180.800781 279.285156 C 180.800781 283.140625 183.929688 286.269531 187.789062 286.269531 C 191.644531 286.269531 194.773438 283.140625 194.773438 279.285156 C 194.773438 275.425781 191.644531 272.296875 187.789062 272.296875 Z M 187.789062 272.296875 " fill-opacity="1" fill-rule="nonzero"/><path fill="#2e2e2e" d="M 208.390625 265.628906 C 208.390625 269.40625 205.320312 272.496094 201.523438 272.496094 C 197.726562 272.496094 194.65625 269.425781 194.65625 265.628906 C 194.65625 261.832031 197.726562 258.761719 201.523438 258.761719 C 205.320312 258.761719 208.390625 261.851562 208.390625 265.628906 Z M 226.160156 258.78125 C 222.382812 258.78125 219.292969 261.851562 219.292969 265.648438 C 219.292969 269.445312 222.363281 272.515625 226.160156 272.515625 C 229.957031 272.515625 233.027344 269.445312 233.027344 265.648438 C 233.027344 261.851562 229.957031 258.78125 226.160156 258.78125 Z M 214.941406 282.667969 L 221.871094 277.277344 C 222.792969 276.570312 222.953125 275.230469 222.242188 274.304688 C 221.535156 273.382812 220.195312 273.222656 219.273438 273.933594 L 213.644531 278.320312 L 207.898438 273.933594 C 206.972656 273.222656 205.636719 273.402344 204.925781 274.324219 C 204.21875 275.25 204.394531 276.589844 205.320312 277.296875 L 212.34375 282.6875 C 212.71875 282.984375 213.171875 283.121094 213.625 283.121094 C 214.097656 283.121094 214.550781 282.964844 214.941406 282.667969 Z M 214.941406 282.667969 " fill-opacity="1" fill-rule="nonzero"/><path fill="#2e2e2e" d="M 231.15625 251.183594 L 195.519531 251.183594 C 194.359375 251.183594 193.414062 250.238281 193.414062 249.078125 C 193.414062 247.917969 194.359375 246.972656 195.519531 246.972656 L 231.15625 246.972656 C 232.320312 246.972656 233.261719 247.917969 233.261719 249.078125 C 233.261719 250.238281 232.339844 251.183594 231.15625 251.183594 Z M 231.15625 251.183594 " fill-opacity="1" fill-rule="nonzero"/><g clip-path="url(#814565820d)"><path fill="#ffde59" d="M 229.890625 55.5 L 383.679688 55.5 L 383.679688 73.386719 L 229.890625 73.386719 Z M 229.890625 55.5 " fill-opacity="1" fill-rule="nonzero"/></g><g clip-path="url(#523cfb1fc6)"><g clip-path="url(#0fe542c61d)"><path fill="#ff5761" d="M 337.5 19.535156 L 429.226562 19.535156 L 429.226562 106.828125 L 337.5 106.828125 Z M 337.5 19.535156 " fill-opacity="1" fill-rule="nonzero"/></g></g><g clip-path="url(#771d37c930)"><g clip-path="url(#e68174cbfb)"><g clip-path="url(#c81452f1d9)"><path fill="#ff5761" d="M 422.203125 86.796875 L 367.46875 109.914062 C 364.929688 110.988281 362.003906 109.792969 360.929688 107.253906 L 337.8125 52.519531 C 336.738281 49.984375 337.9375 47.054688 340.472656 45.984375 L 395.207031 22.863281 C 397.746094 21.789062 400.671875 22.988281 401.746094 25.523438 L 424.863281 80.257812 C 425.9375 82.796875 424.738281 85.722656 422.203125 86.796875 Z M 422.203125 86.796875 " fill-opacity="1" fill-rule="nonzero"/></g></g></g><g clip-path="url(#352bb3e4d1)"><g clip-path="url(#5a197597c2)"><g clip-path="url(#b93174926f)"><path fill="#ffffff" d="M 378.703125 60.09375 C 376.828125 64.203125 371.984375 65.996094 367.890625 64.128906 C 363.796875 62.261719 361.984375 57.410156 363.855469 53.316406 C 365.722656 49.222656 370.574219 47.414062 374.667969 49.28125 C 378.757812 51.148438 380.578125 55.980469 378.703125 60.09375 Z M 398.824219 59.796875 C 394.714844 57.921875 389.878906 59.742188 388.011719 63.835938 C 386.144531 67.929688 387.957031 72.78125 392.050781 74.648438 C 396.140625 76.515625 400.992188 74.703125 402.863281 70.609375 C 404.730469 66.519531 402.9375 61.675781 398.824219 59.796875 Z M 398.824219 59.796875 " fill-opacity="1" fill-rule="nonzero"/></g></g></g><g clip-path="url(#f55988de42)"><g clip-path="url(#73523e4cca)"><g clip-path="url(#ef9179d716)"><path fill="#ff5761" d="M 405.027344 82.5 C 403.863281 85.050781 400.867188 86.167969 398.316406 85.003906 C 395.765625 83.839844 394.648438 80.847656 395.8125 78.296875 C 396.976562 75.746094 399.96875 74.628906 402.523438 75.792969 C 405.0625 76.929688 406.191406 79.949219 405.027344 82.5 Z M 360.191406 56.957031 C 357.640625 55.792969 354.644531 56.914062 353.480469 59.464844 C 352.316406 62.015625 353.4375 65.007812 355.988281 66.171875 C 358.539062 67.335938 361.53125 66.21875 362.695312 63.667969 C 363.859375 61.117188 362.742188 58.121094 360.191406 56.957031 Z M 360.191406 56.957031 " fill-opacity="1" fill-rule="nonzero"/></g></g></g><g clip-path="url(#d67d9e0818)"><g clip-path="url(#feb57ce570)"><g clip-path="url(#425cca62a1)"><path fill="#2e2e2e" d="M 375.808594 58.773438 C 374.671875 61.265625 371.703125 62.375 369.210938 61.234375 C 366.71875 60.097656 365.609375 57.132812 366.746094 54.636719 C 367.886719 52.144531 370.851562 51.035156 373.347656 52.175781 C 375.839844 53.3125 376.957031 56.257812 375.808594 58.773438 Z M 397.503906 62.691406 C 395.011719 61.554688 392.042969 62.660156 390.90625 65.15625 C 389.769531 67.648438 390.875 70.617188 393.371094 71.753906 C 395.863281 72.890625 398.832031 71.785156 399.96875 69.289062 C 401.105469 66.796875 400 63.828125 397.503906 62.691406 Z M 397.503906 62.691406 " fill-opacity="1" fill-rule="nonzero"/></g></g></g><g clip-path="url(#e613e8fc22)"><g clip-path="url(#48b2fff633)"><g clip-path="url(#51af1663e4)"><path fill="#2e2e2e" d="M 378.347656 73.570312 C 378.175781 73.492188 378.007812 73.414062 377.84375 73.316406 C 373.121094 70.863281 371.726562 65.601562 371.664062 65.390625 C 371.390625 64.324219 372.035156 63.214844 373.101562 62.941406 C 374.167969 62.667969 375.277344 63.3125 375.550781 64.382812 C 375.582031 64.464844 376.601562 68.171875 379.710938 69.777344 C 381.761719 70.828125 384.335938 70.78125 387.414062 69.632812 C 388.46875 69.242188 389.609375 69.761719 390.003906 70.816406 C 390.394531 71.867188 389.875 73.011719 388.820312 73.402344 C 384.875 74.894531 381.355469 74.941406 378.347656 73.570312 Z M 378.347656 73.570312 " fill-opacity="1" fill-rule="nonzero"/></g></g></g><g clip-path="url(#a26293264d)"><g clip-path="url(#8f0704304b)"><g clip-path="url(#8efe22a004)"><path fill="#00b29f" d="M 151.347656 61.457031 L 212.371094 0.433594 L 276.257812 64.316406 L 215.234375 125.339844 Z M 151.347656 61.457031 " fill-opacity="1" fill-rule="nonzero"/></g></g></g><g clip-path="url(#6476404563)"><path fill="#00b29f" d="M 183.402344 86.253906 C 173.6875 86.253906 167.140625 76.257812 171.078125 67.382812 C 178.308594 51.03125 194.679688 39.632812 213.707031 39.632812 C 232.738281 39.632812 249.109375 51.03125 256.355469 67.382812 C 260.296875 76.257812 253.746094 86.253906 244.03125 86.253906 Z M 183.402344 86.253906 " fill-opacity="1" fill-rule="nonzero"/></g><path fill="#ffffff" d="M 213.007812 58.261719 C 213.007812 62.410156 209.648438 65.769531 205.496094 65.769531 C 201.347656 65.769531 197.988281 62.410156 197.988281 58.261719 C 197.988281 54.109375 201.347656 50.75 205.496094 50.75 C 209.648438 50.75 213.007812 54.109375 213.007812 58.261719 Z M 221.9375 50.75 C 217.789062 50.75 214.425781 54.109375 214.425781 58.261719 C 214.425781 62.410156 217.789062 65.769531 221.9375 65.769531 C 226.085938 65.769531 229.449219 62.410156 229.449219 58.261719 C 229.449219 54.109375 226.085938 50.75 221.9375 50.75 Z M 221.9375 50.75 " fill-opacity="1" fill-rule="nonzero"/><path fill="#2e2e2e" d="M 213.585938 75.433594 C 209.925781 75.433594 206.96875 72.457031 206.96875 68.816406 C 206.96875 65.15625 209.945312 62.199219 213.585938 62.199219 C 217.246094 62.199219 220.203125 65.175781 220.203125 68.816406 C 220.203125 72.457031 217.246094 75.433594 213.585938 75.433594 Z M 213.585938 65.804688 C 211.921875 65.804688 210.574219 67.152344 210.574219 68.816406 C 210.574219 70.480469 211.921875 71.828125 213.585938 71.828125 C 215.25 71.828125 216.597656 70.480469 216.597656 68.816406 C 216.597656 67.152344 215.25 65.804688 213.585938 65.804688 Z M 213.585938 65.804688 " fill-opacity="1" fill-rule="nonzero"/><path fill="#00b29f" d="M 235.800781 67.382812 C 235.800781 69.953125 233.71875 72.054688 231.128906 72.054688 C 228.554688 72.054688 226.453125 69.972656 226.453125 67.382812 C 226.453125 64.789062 228.535156 62.707031 231.128906 62.707031 C 233.703125 62.707031 235.800781 64.808594 235.800781 67.382812 Z M 196.304688 62.707031 C 193.734375 62.707031 191.632812 64.789062 191.632812 67.382812 C 191.632812 69.972656 193.714844 72.054688 196.304688 72.054688 C 198.898438 72.054688 200.980469 69.972656 200.980469 67.382812 C 200.980469 64.789062 198.878906 62.707031 196.304688 62.707031 Z M 196.304688 62.707031 " fill-opacity="1" fill-rule="nonzero"/><path fill="#2e2e2e" d="M 210.066406 58.261719 C 210.066406 60.796875 208.019531 62.847656 205.480469 62.847656 C 202.941406 62.847656 200.894531 60.796875 200.894531 58.261719 C 200.894531 55.722656 202.941406 53.671875 205.480469 53.671875 C 208.019531 53.671875 210.066406 55.722656 210.066406 58.261719 Z M 221.9375 53.671875 C 219.398438 53.671875 217.351562 55.722656 217.351562 58.261719 C 217.351562 60.796875 219.398438 62.847656 221.9375 62.847656 C 224.476562 62.847656 226.523438 60.796875 226.523438 58.261719 C 226.523438 55.722656 224.476562 53.671875 221.9375 53.671875 Z M 221.9375 53.671875 " fill-opacity="1" fill-rule="nonzero"/><g clip-path="url(#2377ec07ea)"><g clip-path="url(#885990c037)"><g clip-path="url(#1e92a9ce48)"><path fill="#00b29f" d="M 163.410156 454.660156 L 214.1875 406.867188 L 264.21875 460.023438 L 213.441406 507.816406 Z M 163.410156 454.660156 " fill-opacity="1" fill-rule="nonzero"/></g></g></g><g clip-path="url(#eb2fbc72d8)"><g clip-path="url(#9ada1cc65b)"><g clip-path="url(#16e44f7b1a)"><path fill="#00b29f" d="M 243.84375 460.800781 C 247.570312 463.046875 250.453125 466.6875 251.660156 471.214844 C 254.140625 480.523438 248.601562 490.085938 239.292969 492.566406 C 232.296875 494.429688 225.164062 491.769531 221.007812 486.378906 C 219.914062 492.917969 215.128906 498.5625 208.292969 500.382812 C 198.988281 502.863281 189.421875 497.320312 186.941406 488.015625 C 185.765625 483.59375 186.410156 479.109375 188.382812 475.363281 C 181.726562 474.339844 175.976562 469.507812 174.132812 462.601562 C 171.65625 453.292969 177.195312 443.730469 186.503906 441.25 C 187.933594 440.867188 189.359375 440.679688 190.757812 440.671875 C 190.339844 439.75 189.96875 438.792969 189.703125 437.792969 C 187.222656 428.484375 192.761719 418.921875 202.070312 416.441406 C 211.375 413.960938 220.941406 419.503906 223.417969 428.808594 C 223.71875 429.9375 223.902344 431.054688 223.96875 432.167969 C 225.472656 431.195312 227.148438 430.421875 228.988281 429.929688 C 238.296875 427.453125 247.859375 432.992188 250.339844 442.300781 C 252.214844 449.410156 249.414062 456.671875 243.84375 460.800781 Z M 243.84375 460.800781 " fill-opacity="1" fill-rule="nonzero"/></g></g></g><g clip-path="url(#6abf5f79fc)"><g clip-path="url(#b6f85a683b)"><g clip-path="url(#3d06dc6f0e)"><path fill="#f5f5ef" d="M 211.242188 451.738281 C 212.40625 456.105469 209.800781 460.574219 205.453125 461.734375 C 201.105469 462.890625 196.617188 460.292969 195.457031 455.941406 C 194.300781 451.59375 196.898438 447.105469 201.246094 445.949219 C 205.597656 444.789062 210.085938 447.386719 211.242188 451.738281 Z M 218.519531 441.347656 C 214.152344 442.507812 211.570312 446.992188 212.726562 451.339844 C 213.886719 455.691406 218.375 458.289062 222.722656 457.132812 C 227.074219 455.972656 229.671875 451.484375 228.511719 447.136719 C 227.355469 442.789062 222.867188 440.1875 218.519531 441.347656 Z M 218.519531 441.347656 " fill-opacity="1" fill-rule="nonzero"/></g></g></g><g clip-path="url(#6d474a8871)"><g clip-path="url(#6df0271057)"><g clip-path="url(#0665c6c94f)"><path fill="#00b29f" d="M 237.722656 454.9375 C 238.441406 457.640625 236.828125 460.429688 234.125 461.148438 C 231.421875 461.867188 228.632812 460.253906 227.914062 457.550781 C 227.195312 454.847656 228.808594 452.058594 231.511719 451.339844 C 234.214844 450.621094 237 452.234375 237.722656 454.9375 Z M 194.933594 461.105469 C 192.234375 461.824219 190.617188 464.613281 191.335938 467.3125 C 192.058594 470.015625 194.84375 471.632812 197.546875 470.910156 C 200.25 470.191406 201.863281 467.402344 201.144531 464.699219 C 200.421875 461.980469 197.65625 460.378906 194.933594 461.105469 Z M 194.933594 461.105469 " fill-opacity="1" fill-rule="nonzero"/></g></g></g><g clip-path="url(#494d04062a)"><g clip-path="url(#6a821b2d29)"><g clip-path="url(#2f9d06f976)"><path fill="#2e2e2e" d="M 217.117188 469.1875 C 209.816406 471.132812 203 468.710938 199.464844 467.027344 C 198.476562 466.5625 198.070312 465.386719 198.535156 464.398438 C 199 463.414062 200.175781 463.003906 201.160156 463.46875 C 207.246094 466.371094 218.785156 469.335938 227.898438 456.347656 C 228.523438 455.453125 229.753906 455.238281 230.648438 455.863281 C 231.542969 456.488281 231.753906 457.714844 231.128906 458.609375 C 226.761719 464.875 221.824219 467.933594 217.117188 469.1875 Z M 217.117188 469.1875 " fill-opacity="1" fill-rule="nonzero"/></g></g></g><g clip-path="url(#ebb1f035a0)"><g clip-path="url(#374be02906)"><g clip-path="url(#1d606877dd)"><path fill="#2e2e2e" d="M 208.144531 452.5625 C 208.851562 455.210938 207.28125 457.949219 204.613281 458.660156 C 201.964844 459.363281 199.226562 457.792969 198.519531 455.128906 C 197.808594 452.460938 199.382812 449.742188 202.050781 449.03125 C 204.714844 448.320312 207.441406 449.914062 208.144531 452.5625 Z M 219.339844 444.425781 C 216.6875 445.128906 215.097656 447.855469 215.804688 450.523438 C 216.515625 453.1875 219.238281 454.761719 221.902344 454.054688 C 224.550781 453.347656 226.144531 450.621094 225.433594 447.957031 C 224.722656 445.289062 221.988281 443.71875 219.339844 444.425781 Z M 219.339844 444.425781 " fill-opacity="1" fill-rule="nonzero"/></g></g></g></svg>